<svg xmlns="http://www.w3.org/2000/svg" xmlns:xlink="http://www.w3.org/1999/xlink" width="250" zoomAndPan="magnify" viewBox="0 0 187.5 82.499998" height="110" preserveAspectRatio="xMidYMid meet" version="1.0"><defs><clipPath id="d048d4baf1"><path d="M 0.316406 0 L 186.6875 0 L 186.6875 82.003906 L 0.316406 82.003906 Z M 0.316406 0 " clip-rule="nonzero"/></clipPath><clipPath id="f9e67fe770"><path d="M 39.730469 28.160156 L 148 28.160156 L 148 54.320312 L 39.730469 54.320312 Z M 39.730469 28.160156 " clip-rule="nonzero"/></clipPath></defs><g clip-path="url(#d048d4baf1)"><path fill="#ffffff" d="M 0.316406 0 L 187.183594 0 L 187.183594 88.949219 L 0.316406 88.949219 Z M 0.316406 0 " fill-opacity="1" fill-rule="nonzero"/><path fill="#ffffff" d="M 0.316406 0 L 187.183594 0 L 187.183594 82.222656 L 0.316406 82.222656 Z M 0.316406 0 " fill-opacity="1" fill-rule="nonzero"/><path fill="#dbdbdb" d="M 0.316406 0 L 187.183594 0 L 187.183594 82.222656 L 0.316406 82.222656 Z M 0.316406 0 " fill-opacity="1" fill-rule="nonzero"/></g><g clip-path="url(#f9e67fe770)"><path fill="#000000" d="M 50.425781 42.027344 C 50.414062 40.558594 50.539062 39.082031 50.707031 37.59375 C 50.726562 37.410156 50.683594 37.226562 50.59375 37.066406 C 50.632812 36.90625 50.59375 36.683594 50.425781 36.433594 C 50.027344 35.882812 49.503906 35.375 48.839844 35.035156 C 48.179688 34.691406 47.398438 34.550781 46.660156 34.605469 C 45.914062 34.660156 45.214844 34.890625 44.582031 35.207031 C 43.949219 35.523438 43.378906 35.925781 42.867188 36.382812 C 41.839844 37.296875 41.015625 38.40625 40.449219 39.667969 C 40.167969 40.300781 39.953125 40.976562 39.851562 41.691406 C 39.824219 41.871094 39.800781 42.050781 39.796875 42.234375 L 39.785156 42.511719 C 39.785156 42.605469 39.792969 42.699219 39.792969 42.792969 L 39.808594 43.074219 L 39.835938 43.320312 C 39.851562 43.484375 39.878906 43.652344 39.902344 43.820312 C 39.957031 44.15625 40.019531 44.492188 40.117188 44.84375 C 40.214844 45.191406 40.339844 45.546875 40.546875 45.921875 C 40.601562 46.015625 40.652344 46.109375 40.722656 46.203125 L 40.820312 46.34375 L 40.941406 46.484375 C 41.019531 46.578125 41.125 46.667969 41.222656 46.757812 C 41.339844 46.839844 41.445312 46.925781 41.582031 46.992188 C 41.839844 47.136719 42.152344 47.226562 42.441406 47.242188 C 42.734375 47.265625 43.011719 47.234375 43.246094 47.171875 C 43.726562 47.046875 44.085938 46.839844 44.410156 46.632812 C 44.730469 46.417969 45.011719 46.191406 45.269531 45.953125 C 45.789062 45.480469 46.234375 44.984375 46.648438 44.472656 C 47.476562 43.453125 48.1875 42.382812 48.847656 41.289062 C 48.863281 41.257812 48.882812 41.226562 48.898438 41.195312 C 48.914062 41.496094 48.933594 41.796875 48.960938 42.09375 C 49.09375 43.652344 49.40625 45.203125 49.921875 46.675781 C 50.328125 47.730469 51.164062 47.421875 50.929688 46.394531 C 50.589844 44.957031 50.433594 43.492188 50.425781 42.027344 Z M 48.152344 38.738281 C 47.84375 39.261719 47.523438 39.78125 47.191406 40.289062 C 46.527344 41.308594 45.824219 42.300781 45.066406 43.210938 C 44.6875 43.664062 44.289062 44.097656 43.878906 44.464844 C 43.675781 44.648438 43.46875 44.816406 43.265625 44.949219 C 43.066406 45.082031 42.863281 45.183594 42.734375 45.210938 C 42.664062 45.234375 42.621094 45.230469 42.601562 45.230469 C 42.574219 45.230469 42.574219 45.230469 42.558594 45.222656 C 42.53125 45.21875 42.425781 45.117188 42.328125 44.949219 C 42.125 44.597656 41.972656 44.054688 41.875 43.503906 C 41.851562 43.363281 41.828125 43.226562 41.808594 43.082031 L 41.78125 42.867188 L 41.765625 42.683594 C 41.761719 42.621094 41.753906 42.5625 41.753906 42.5 L 41.757812 42.3125 C 41.753906 42.183594 41.769531 42.058594 41.78125 41.929688 C 41.835938 41.414062 41.976562 40.886719 42.175781 40.371094 C 42.582031 39.347656 43.222656 38.371094 44.015625 37.570312 C 44.804688 36.773438 45.785156 36.128906 46.8125 35.964844 C 47.320312 35.882812 47.835938 35.925781 48.316406 36.117188 C 48.679688 36.261719 49.023438 36.492188 49.335938 36.78125 C 49.210938 36.863281 49.105469 36.980469 49.035156 37.121094 L 49.011719 37.171875 C 48.761719 37.683594 48.457031 38.21875 48.152344 38.738281 Z M 62.382812 46.546875 C 62.535156 46.925781 61.78125 47.394531 61.496094 47.097656 C 60.296875 45.695312 59.199219 44.230469 58.160156 42.753906 C 57.808594 43.386719 57.441406 44.015625 57.046875 44.632812 C 56.425781 45.609375 55.765625 46.566406 54.953125 47.464844 C 54.648438 47.757812 53.945312 47.210938 54.089844 46.882812 C 54.5625 45.890625 54.988281 44.835938 55.449219 43.804688 C 55.890625 42.8125 56.351562 41.832031 56.855469 40.859375 C 56.3125 40.054688 55.765625 39.25 55.222656 38.445312 C 54.558594 37.488281 53.894531 36.539062 53.113281 35.726562 C 52.914062 35.484375 53.410156 34.742188 53.742188 34.917969 C 54.871094 35.574219 55.796875 36.441406 56.636719 37.347656 C 57.097656 37.851562 57.53125 38.371094 57.941406 38.90625 C 58.175781 38.511719 58.417969 38.125 58.671875 37.738281 C 58.992188 37.253906 59.332031 36.773438 59.699219 36.308594 C 59.886719 36.074219 60.078125 35.84375 60.289062 35.617188 C 60.5 35.390625 60.714844 35.167969 60.996094 34.957031 C 61.382812 34.710938 61.820312 35.511719 61.714844 35.6875 C 61.582031 35.871094 61.449219 36.109375 61.324219 36.34375 C 61.199219 36.582031 61.078125 36.828125 60.957031 37.078125 L 60.246094 38.59375 C 59.917969 39.304688 59.578125 40.015625 59.226562 40.722656 C 60.449219 42.582031 61.464844 44.542969 62.382812 46.546875 Z M 79.476562 40.71875 C 78.664062 41.042969 77.828125 41.257812 76.996094 41.414062 C 76.550781 41.496094 76.105469 41.558594 75.664062 41.609375 C 75.582031 42.5 75.496094 43.371094 75.449219 44.230469 C 75.402344 45.167969 75.394531 46.09375 75.527344 47.027344 C 75.546875 47.34375 74.714844 47.671875 74.53125 47.351562 C 74.035156 46.398438 73.765625 45.335938 73.644531 44.292969 C 73.546875 43.4375 73.542969 42.589844 73.59375 41.753906 C 73.078125 41.773438 72.5625 41.777344 72.050781 41.773438 C 71.238281 41.765625 70.429688 41.734375 69.628906 41.742188 C 69.359375 41.722656 69.121094 40.875 69.394531 40.738281 C 70.207031 40.386719 71.046875 40.164062 71.878906 40.003906 C 72.523438 39.878906 73.167969 39.792969 73.8125 39.738281 C 74.035156 38.25 74.355469 36.816406 74.582031 35.367188 C 74.648438 35.097656 75.546875 35.050781 75.617188 35.34375 C 75.8125 36.363281 75.863281 37.398438 75.855469 38.40625 C 75.851562 38.824219 75.835938 39.234375 75.8125 39.644531 C 76.976562 39.636719 78.128906 39.691406 79.277344 39.722656 C 79.511719 39.746094 79.707031 40.609375 79.476562 40.71875 Z M 100.625 41.808594 C 100.6875 42.527344 100.519531 43.265625 100.203125 43.878906 C 99.886719 44.5 99.449219 45.003906 98.96875 45.429688 C 98.003906 46.273438 96.878906 46.808594 95.730469 47.179688 C 94.574219 47.542969 93.367188 47.71875 92.152344 47.671875 C 91.824219 47.644531 91.582031 47.566406 91.429688 47.453125 C 91.277344 47.34375 91.214844 47.21875 91.230469 47.101562 C 91.246094 46.980469 91.335938 46.871094 91.492188 46.789062 C 91.648438 46.714844 91.867188 46.652344 92.15625 46.640625 C 93.222656 46.585938 94.289062 46.339844 95.273438 45.941406 C 96.257812 45.542969 97.183594 45 97.882812 44.300781 C 98.230469 43.953125 98.511719 43.570312 98.6875 43.171875 C 98.859375 42.773438 98.917969 42.371094 98.863281 41.976562 C 98.808594 41.582031 98.640625 41.1875 98.386719 40.808594 C 98.140625 40.425781 97.78125 40.074219 97.414062 39.738281 C 97.214844 39.582031 97.027344 39.40625 96.820312 39.269531 C 96.714844 39.195312 96.617188 39.113281 96.511719 39.050781 L 96.199219 38.863281 C 95.789062 38.632812 95.367188 38.476562 95.019531 38.449219 C 94.667969 38.417969 94.40625 38.511719 94.121094 38.71875 C 93.835938 38.925781 93.566406 39.289062 93.34375 39.703125 C 92.886719 40.539062 92.589844 41.5625 92.371094 42.597656 C 92.15625 43.640625 92.019531 44.71875 91.9375 45.796875 L 91.933594 45.820312 C 91.894531 46.359375 91.414062 46.765625 90.863281 46.726562 C 90.378906 46.691406 90 46.316406 89.945312 45.855469 C 89.636719 43.117188 89.339844 40.351562 89.230469 37.566406 C 89.175781 36.171875 89.167969 34.773438 89.234375 33.371094 C 89.300781 31.972656 89.441406 30.566406 89.726562 29.183594 C 89.96875 28.152344 90.847656 28.355469 90.746094 29.339844 C 90.601562 30.675781 90.582031 32.03125 90.621094 33.386719 C 90.660156 34.742188 90.757812 36.097656 90.890625 37.457031 C 90.960938 38.167969 91.039062 38.882812 91.125 39.597656 C 91.246094 39.308594 91.382812 39.023438 91.539062 38.734375 C 91.859375 38.167969 92.257812 37.589844 92.894531 37.121094 L 93.136719 36.953125 C 93.21875 36.902344 93.3125 36.855469 93.402344 36.808594 C 93.578125 36.707031 93.785156 36.648438 93.980469 36.582031 C 94.078125 36.546875 94.183594 36.539062 94.285156 36.515625 C 94.390625 36.5 94.492188 36.476562 94.59375 36.472656 L 94.902344 36.464844 L 95.054688 36.464844 L 95.199219 36.484375 C 95.988281 36.566406 96.640625 36.867188 97.207031 37.203125 L 97.617188 37.46875 C 97.75 37.554688 97.871094 37.65625 97.996094 37.75 C 98.253906 37.9375 98.476562 38.152344 98.710938 38.355469 C 99.164062 38.796875 99.605469 39.265625 99.953125 39.84375 C 100.300781 40.414062 100.566406 41.085938 100.625 41.808594 Z M 112.285156 43.855469 C 112.417969 45.355469 112.589844 46.894531 112.507812 48.507812 C 112.464844 49.3125 112.351562 50.144531 112.058594 50.96875 C 111.773438 51.78125 111.269531 52.605469 110.53125 53.167969 C 109.796875 53.730469 108.9375 54.027344 108.113281 54.167969 C 107.277344 54.320312 106.464844 54.292969 105.667969 54.242188 C 104.613281 54.113281 104.726562 53.238281 105.695312 53.210938 C 106.433594 53.175781 107.167969 53.121094 107.835938 52.929688 C 108.507812 52.746094 109.109375 52.457031 109.558594 52.042969 C 110.457031 51.21875 110.699219 49.859375 110.691406 48.457031 C 110.6875 47.042969 110.46875 45.570312 110.292969 44.058594 C 110.269531 43.886719 110.25 43.714844 110.230469 43.542969 C 110.171875 43.644531 110.109375 43.746094 110.046875 43.847656 C 109.628906 44.515625 109.140625 45.1875 108.460938 45.765625 C 108.117188 46.050781 107.71875 46.3125 107.257812 46.492188 C 106.800781 46.671875 106.285156 46.761719 105.792969 46.734375 L 105.425781 46.699219 L 105.074219 46.625 C 104.847656 46.566406 104.625 46.496094 104.40625 46.398438 C 103.964844 46.203125 103.550781 45.90625 103.230469 45.539062 C 102.90625 45.171875 102.6875 44.742188 102.546875 44.316406 C 102.410156 43.894531 102.34375 43.46875 102.324219 43.054688 C 102.285156 42.226562 102.40625 41.445312 102.605469 40.695312 C 102.808594 39.945312 103.085938 39.226562 103.445312 38.542969 C 103.667969 38.148438 103.996094 38.074219 104.203125 38.195312 C 104.414062 38.316406 104.523438 38.597656 104.386719 38.964844 C 104.136719 39.605469 103.957031 40.28125 103.847656 40.953125 C 103.738281 41.625 103.707031 42.304688 103.792969 42.929688 C 103.875 43.554688 104.097656 44.113281 104.449219 44.453125 C 104.628906 44.621094 104.835938 44.75 105.078125 44.835938 C 105.320312 44.921875 105.605469 44.980469 105.84375 44.972656 C 106.332031 44.96875 106.769531 44.757812 107.199219 44.363281 C 107.625 43.96875 108.003906 43.433594 108.339844 42.851562 C 108.675781 42.269531 108.980469 41.640625 109.273438 40.988281 L 109.726562 39.988281 C 109.882812 39.648438 110.042969 39.304688 110.257812 38.929688 C 110.535156 38.441406 111.160156 38.269531 111.65625 38.539062 C 112.03125 38.746094 112.222656 39.148438 112.171875 39.542969 L 112.171875 39.5625 C 112.007812 40.886719 112.148438 42.363281 112.285156 43.855469 Z M 130.855469 38.449219 C 130.863281 38.550781 130.808594 38.65625 130.738281 38.691406 C 130.460938 38.8125 130.226562 38.863281 130 38.90625 C 129.773438 38.949219 129.558594 38.972656 129.34375 38.992188 C 128.917969 39.03125 128.503906 39.042969 128.097656 39.042969 C 127.28125 39.042969 126.492188 38.992188 125.714844 38.933594 C 124.957031 38.867188 124.195312 38.804688 123.4375 38.738281 C 122.691406 38.6875 121.957031 38.652344 121.25 38.753906 C 121.015625 38.769531 120.589844 37.996094 120.847656 37.800781 C 121.628906 37.3125 122.515625 37.082031 123.363281 36.960938 C 124.21875 36.847656 125.0625 36.847656 125.882812 36.914062 C 126.707031 36.980469 127.507812 37.117188 128.285156 37.28125 C 128.675781 37.363281 129.058594 37.453125 129.429688 37.539062 C 129.617188 37.582031 129.800781 37.621094 129.972656 37.652344 C 130.148438 37.691406 130.316406 37.707031 130.421875 37.722656 C 130.460938 37.730469 130.476562 37.789062 130.539062 37.867188 C 130.59375 37.945312 130.671875 38.039062 130.734375 38.140625 C 130.800781 38.242188 130.851562 38.347656 130.855469 38.449219 Z M 130.21875 43.867188 C 130.410156 44.015625 130.035156 44.820312 129.816406 44.804688 C 128.316406 44.550781 126.878906 44.484375 125.402344 44.433594 C 123.929688 44.382812 122.417969 44.355469 120.835938 44.253906 C 120.570312 44.21875 120.425781 43.351562 120.679688 43.234375 C 122.191406 42.671875 123.816406 42.351562 125.476562 42.410156 C 127.125 42.460938 128.828125 42.925781 130.21875 43.867188 Z M 147.757812 45.289062 C 147.507812 45.804688 147.203125 46.304688 146.8125 46.761719 C 146.417969 47.214844 145.933594 47.613281 145.378906 47.917969 C 144.824219 48.21875 144.199219 48.414062 143.5625 48.488281 C 142.925781 48.5625 142.277344 48.515625 141.664062 48.375 C 139.191406 47.796875 137.246094 45.851562 136.503906 43.507812 L 136.375 43.066406 L 136.28125 42.613281 C 136.265625 42.546875 136.253906 42.445312 136.242188 42.355469 C 136.234375 42.265625 136.222656 42.179688 136.222656 42.09375 C 136.214844 41.921875 136.214844 41.757812 136.222656 41.597656 C 136.261719 40.960938 136.386719 40.386719 136.542969 39.828125 C 136.863281 38.71875 137.316406 37.683594 137.878906 36.703125 C 138.160156 36.210938 138.472656 35.734375 138.824219 35.277344 C 139.175781 34.824219 139.566406 34.382812 140.042969 33.992188 C 140.28125 33.796875 140.542969 33.613281 140.84375 33.457031 C 141.144531 33.304688 141.496094 33.183594 141.894531 33.167969 C 142.09375 33.160156 142.300781 33.183594 142.492188 33.238281 C 142.691406 33.292969 142.867188 33.386719 143.023438 33.488281 C 143.332031 33.703125 143.550781 33.96875 143.714844 34.234375 C 143.894531 34.546875 143.742188 34.804688 143.535156 34.910156 C 143.316406 35.023438 143.042969 35.003906 142.871094 34.824219 C 142.726562 34.65625 142.566406 34.527344 142.417969 34.460938 C 142.269531 34.394531 142.144531 34.386719 142.003906 34.414062 C 141.71875 34.472656 141.359375 34.730469 141.046875 35.058594 C 140.417969 35.730469 139.90625 36.617188 139.476562 37.515625 C 139.050781 38.421875 138.699219 39.375 138.472656 40.320312 C 138.359375 40.789062 138.277344 41.261719 138.261719 41.6875 C 138.257812 41.792969 138.261719 41.894531 138.265625 41.988281 C 138.269531 42.035156 138.273438 42.078125 138.277344 42.121094 C 138.285156 42.164062 138.289062 42.195312 138.304688 42.257812 L 138.375 42.585938 L 138.46875 42.90625 C 138.742188 43.761719 139.214844 44.5625 139.851562 45.21875 C 140.484375 45.875 141.273438 46.390625 142.128906 46.660156 C 142.980469 46.929688 143.894531 46.929688 144.722656 46.597656 C 145.136719 46.433594 145.53125 46.191406 145.886719 45.882812 C 146.242188 45.570312 146.554688 45.195312 146.839844 44.789062 C 147.210938 44.246094 148.050781 44.5625 147.757812 45.289062 Z M 147.757812 45.289062 " fill-opacity="1" fill-rule="nonzero"/></g></svg>