<svg xmlns="http://www.w3.org/2000/svg" xmlns:xlink="http://www.w3.org/1999/xlink" width="250" zoomAndPan="magnify" viewBox="0 0 187.5 82.499998" height="110" preserveAspectRatio="xMidYMid meet" version="1.0"><defs><clipPath id="d497cfd161"><path d="M 0.316406 0 L 186.6875 0 L 186.6875 82.003906 L 0.316406 82.003906 Z M 0.316406 0 " clip-rule="nonzero"/></clipPath><clipPath id="417c6c6e82"><path d="M 30 30.78125 L 157.730469 30.78125 L 157.730469 51.710938 L 30 51.710938 Z M 30 30.78125 " clip-rule="nonzero"/></clipPath></defs><g clip-path="url(#d497cfd161)"><path fill="#ffffff" d="M 0.316406 0 L 187.183594 0 L 187.183594 88.949219 L 0.316406 88.949219 Z M 0.316406 0 " fill-opacity="1" fill-rule="nonzero"/><path fill="#ffffff" d="M 0.316406 0 L 187.183594 0 L 187.183594 82.222656 L 0.316406 82.222656 Z M 0.316406 0 " fill-opacity="1" fill-rule="nonzero"/><path fill="#000000" d="M 0.316406 0 L 187.183594 0 L 187.183594 82.222656 L 0.316406 82.222656 Z M 0.316406 0 " fill-opacity="1" fill-rule="nonzero"/></g><g clip-path="url(#417c6c6e82)"><path fill="#dbdbdb" d="M 41.253906 45.074219 C 41.097656 44.347656 40.910156 43.621094 40.667969 42.902344 C 40.421875 42.179688 40.117188 41.464844 39.695312 40.78125 C 39.6875 40.773438 39.683594 40.765625 39.679688 40.757812 C 39.734375 40.734375 39.78125 40.703125 39.8125 40.660156 C 39.871094 40.582031 39.882812 40.476562 39.832031 40.351562 C 39.78125 40.230469 39.671875 40.078125 39.46875 39.96875 C 38.941406 39.667969 38.339844 39.496094 37.742188 39.441406 C 37.140625 39.382812 36.535156 39.4375 35.957031 39.566406 C 34.796875 39.828125 33.71875 40.375 32.796875 41.121094 C 31.875 41.871094 31.070312 42.824219 30.601562 44.003906 C 30.367188 44.59375 30.230469 45.246094 30.238281 45.914062 C 30.246094 46.574219 30.421875 47.257812 30.703125 47.835938 L 30.910156 48.25 C 30.992188 48.390625 31.082031 48.523438 31.167969 48.660156 C 31.355469 48.929688 31.570312 49.199219 31.851562 49.4375 L 31.953125 49.527344 L 32.074219 49.609375 L 32.316406 49.765625 C 32.398438 49.816406 32.5 49.851562 32.589844 49.890625 C 32.683594 49.925781 32.773438 49.972656 32.875 49.992188 C 33.078125 50.035156 33.28125 50.078125 33.484375 50.066406 C 33.691406 50.074219 33.878906 50.039062 34.070312 50 C 34.261719 49.964844 34.421875 49.890625 34.597656 49.828125 C 34.75 49.75 34.914062 49.675781 35.054688 49.585938 C 35.339844 49.410156 35.597656 49.214844 35.832031 49.003906 C 36.296875 48.585938 36.6875 48.128906 37.039062 47.660156 C 37.734375 46.707031 38.300781 45.703125 38.773438 44.648438 C 38.992188 44.164062 39.1875 43.667969 39.359375 43.15625 C 39.660156 43.859375 39.902344 44.613281 40.125 45.367188 C 40.523438 46.738281 40.832031 48.15625 41.210938 49.578125 C 41.496094 50.542969 42.171875 50.355469 42.011719 49.394531 C 41.765625 47.972656 41.570312 46.523438 41.253906 45.074219 Z M 38.402344 41.101562 C 38.335938 41.546875 38.183594 42.050781 38.003906 42.535156 C 37.824219 43.027344 37.613281 43.511719 37.382812 43.988281 C 36.925781 44.9375 36.382812 45.855469 35.765625 46.675781 C 35.453125 47.082031 35.121094 47.460938 34.765625 47.777344 C 34.417969 48.085938 34.03125 48.34375 33.707031 48.410156 C 33.386719 48.476562 33.15625 48.4375 32.871094 48.195312 C 32.589844 47.957031 32.316406 47.578125 32.105469 47.132812 C 31.894531 46.722656 31.78125 46.3125 31.757812 45.867188 C 31.738281 45.425781 31.8125 44.972656 31.964844 44.527344 C 32.277344 43.636719 32.886719 42.804688 33.628906 42.132812 C 34.375 41.453125 35.273438 40.921875 36.226562 40.628906 C 37.046875 40.375 37.929688 40.316406 38.726562 40.5625 C 38.5625 40.667969 38.441406 40.84375 38.410156 41.054688 Z M 51.367188 50.921875 C 51.546875 51.261719 50.988281 51.695312 50.710938 51.425781 C 49.273438 49.902344 47.964844 48.265625 46.796875 46.53125 C 46.335938 47.335938 45.867188 48.148438 45.386719 48.960938 C 45.21875 49.214844 44.570312 48.953125 44.625 48.648438 C 44.921875 47.417969 45.332031 46.214844 45.859375 45.058594 C 45.46875 44.414062 45.097656 43.757812 44.757812 43.078125 C 44.242188 42.050781 43.769531 40.984375 43.453125 39.835938 C 43.378906 39.503906 44.046875 39.273438 44.210938 39.539062 C 44.734375 40.496094 45.359375 41.425781 45.972656 42.355469 C 46.214844 42.71875 46.453125 43.078125 46.691406 43.441406 C 47.574219 41.917969 48.679688 40.511719 49.996094 39.34375 C 50.199219 39.179688 50.730469 39.652344 50.613281 39.875 C 49.703125 41.382812 48.859375 42.890625 48.003906 44.402344 C 47.902344 44.585938 47.796875 44.769531 47.691406 44.953125 C 47.738281 45.019531 47.78125 45.089844 47.828125 45.15625 C 49.054688 47.035156 50.238281 48.957031 51.367188 50.921875 Z M 58.601562 38.800781 C 57.191406 39.019531 55.875 39.628906 54.367188 40.058594 C 54.011719 40.160156 53.640625 39.949219 53.539062 39.585938 C 53.5 39.445312 53.507812 39.300781 53.550781 39.175781 L 53.5625 39.140625 C 53.710938 38.722656 53.878906 38.429688 54.050781 38.132812 C 54.222656 37.84375 54.394531 37.566406 54.570312 37.296875 C 54.917969 36.753906 55.261719 36.230469 55.582031 35.703125 C 55.898438 35.179688 56.191406 34.652344 56.402344 34.136719 C 56.503906 33.882812 56.582031 33.628906 56.613281 33.40625 C 56.648438 33.183594 56.632812 33.007812 56.585938 32.886719 C 56.582031 32.851562 56.554688 32.828125 56.546875 32.796875 C 56.523438 32.757812 56.484375 32.710938 56.457031 32.667969 C 56.394531 32.585938 56.328125 32.515625 56.261719 32.464844 C 56.128906 32.359375 56.011719 32.304688 55.84375 32.300781 C 55.511719 32.285156 55.03125 32.527344 54.652344 32.890625 C 54.261719 33.253906 53.929688 33.726562 53.722656 34.234375 C 53.515625 34.738281 53.433594 35.289062 53.597656 35.765625 C 53.648438 35.9375 53.558594 36.125 53.402344 36.242188 C 53.324219 36.300781 53.234375 36.332031 53.132812 36.316406 C 53.039062 36.300781 52.929688 36.238281 52.863281 36.113281 C 52.675781 35.769531 52.582031 35.378906 52.5625 35 C 52.542969 34.621094 52.59375 34.246094 52.6875 33.890625 C 52.871094 33.179688 53.222656 32.53125 53.707031 31.96875 C 53.953125 31.691406 54.238281 31.433594 54.578125 31.222656 C 54.917969 31.011719 55.324219 30.84375 55.796875 30.8125 C 56.265625 30.773438 56.78125 30.9375 57.160156 31.210938 C 57.351562 31.34375 57.511719 31.503906 57.652344 31.667969 C 57.71875 31.75 57.78125 31.828125 57.847656 31.921875 C 57.910156 32.03125 57.988281 32.136719 58.03125 32.257812 C 58.234375 32.726562 58.25 33.21875 58.199219 33.625 C 58.144531 34.039062 58.03125 34.402344 57.898438 34.742188 C 57.628906 35.417969 57.289062 36.007812 56.929688 36.566406 C 56.570312 37.128906 56.191406 37.652344 55.816406 38.167969 C 55.773438 38.226562 55.734375 38.285156 55.691406 38.347656 C 56.605469 38.144531 57.558594 37.964844 58.542969 37.96875 C 59.132812 38 59.109375 38.710938 58.601562 38.800781 Z M 72.210938 44.753906 C 71.171875 44.871094 70.210938 45.144531 69.222656 45.4375 C 69.445312 47.214844 69.664062 48.992188 69.910156 50.792969 C 69.9375 51.121094 69.265625 51.320312 69.121094 51.019531 C 68.417969 49.382812 67.929688 47.652344 67.660156 45.886719 C 66.621094 46.164062 65.511719 46.382812 64.363281 46.335938 C 64.117188 46.308594 64.042969 45.605469 64.246094 45.511719 C 65.320312 45.121094 66.347656 44.640625 67.476562 44.261719 C 67.347656 42.617188 67.394531 40.960938 67.605469 39.328125 C 67.65625 39.050781 68.363281 39.050781 68.417969 39.320312 C 68.636719 40.847656 68.832031 42.351562 69.023438 43.847656 C 69.378906 43.78125 69.746094 43.730469 70.113281 43.710938 C 70.839844 43.667969 71.585938 43.734375 72.285156 43.9375 C 72.484375 44.003906 72.394531 44.714844 72.210938 44.753906 Z M 89 41.730469 C 88.601562 41.242188 88.074219 40.90625 87.542969 40.691406 C 87.003906 40.472656 86.472656 40.355469 85.878906 40.332031 C 85.296875 40.3125 84.628906 40.433594 84.074219 40.792969 C 83.515625 41.144531 83.113281 41.660156 82.84375 42.167969 C 82.574219 42.683594 82.40625 43.207031 82.277344 43.722656 C 82.269531 43.75 82.265625 43.78125 82.257812 43.808594 C 81.820312 40.953125 81.367188 38.101562 80.941406 35.246094 C 80.796875 34.367188 80.09375 34.441406 80.136719 35.332031 C 80.445312 40.171875 80.980469 44.996094 81.554688 49.800781 C 81.59375 50.113281 81.8125 50.386719 82.132812 50.472656 C 82.550781 50.582031 82.980469 50.328125 83.089844 49.90625 L 83.089844 49.902344 C 83.152344 49.65625 83.199219 49.417969 83.234375 49.1875 C 83.25 49.199219 83.261719 49.207031 83.277344 49.21875 C 83.375 49.273438 83.496094 49.316406 83.636719 49.355469 C 84.152344 49.484375 84.703125 49.503906 85.238281 49.417969 C 85.773438 49.332031 86.28125 49.128906 86.746094 48.867188 C 87.675781 48.335938 88.433594 47.546875 88.972656 46.621094 C 89.503906 45.699219 89.867188 44.605469 89.714844 43.410156 C 89.640625 42.820312 89.402344 42.214844 89 41.730469 Z M 87.890625 46.015625 C 87.5 46.789062 86.917969 47.480469 86.203125 47.957031 C 85.496094 48.445312 84.640625 48.675781 83.796875 48.542969 C 83.683594 48.519531 83.578125 48.519531 83.488281 48.519531 C 83.425781 48.515625 83.375 48.515625 83.320312 48.523438 C 83.328125 48.457031 83.335938 48.394531 83.34375 48.332031 C 83.390625 47.832031 83.425781 47.347656 83.464844 46.867188 C 83.542969 45.910156 83.636719 44.972656 83.839844 44.109375 C 83.941406 43.683594 84.074219 43.273438 84.253906 42.925781 C 84.433594 42.582031 84.652344 42.3125 84.910156 42.140625 C 85.164062 41.964844 85.484375 41.894531 85.851562 41.890625 C 86.21875 41.890625 86.644531 41.972656 87 42.105469 C 87.734375 42.363281 88.21875 42.878906 88.347656 43.628906 C 88.484375 44.371094 88.28125 45.25 87.890625 46.015625 Z M 98.132812 40.855469 C 96.933594 42.175781 95.96875 43.664062 94.890625 45.132812 C 95.5625 46.28125 96.195312 47.488281 96.65625 48.785156 C 96.738281 49.066406 96.121094 49.394531 95.933594 49.183594 C 95.242188 48.285156 94.542969 47.394531 93.882812 46.460938 C 93.027344 47.535156 92.074219 48.566406 90.953125 49.417969 C 90.683594 49.605469 90.207031 49.085938 90.375 48.824219 C 91.28125 47.609375 92.078125 46.324219 92.957031 45.058594 C 92.527344 44.351562 92.132812 43.609375 91.816406 42.820312 C 91.488281 42.011719 91.238281 41.144531 91.152344 40.257812 C 91.136719 40.003906 91.828125 39.851562 91.9375 40.054688 C 92.5 41.316406 93.246094 42.460938 93.988281 43.648438 C 94.414062 43.097656 94.867188 42.5625 95.363281 42.054688 C 96.039062 41.363281 96.789062 40.722656 97.625 40.21875 C 97.871094 40.082031 98.292969 40.65625 98.132812 40.855469 Z M 113.394531 43.082031 C 112.722656 43.480469 112.015625 43.742188 111.304688 43.949219 C 110.914062 44.0625 110.519531 44.152344 110.121094 44.226562 C 110.300781 46.066406 110.402344 47.953125 110.242188 49.847656 C 110.199219 50.171875 109.5 50.203125 109.421875 49.890625 C 109.066406 48.082031 108.714844 46.28125 108.519531 44.429688 C 107.265625 44.515625 105.992188 44.445312 104.734375 44.136719 C 104.484375 44.054688 104.5625 43.351562 104.792969 43.304688 C 105.996094 43.148438 107.199219 42.957031 108.402344 42.8125 C 108.339844 41.390625 108.402344 39.945312 108.679688 38.527344 C 108.746094 38.257812 109.449219 38.308594 109.488281 38.574219 C 109.609375 39.941406 109.789062 41.289062 109.949219 42.648438 C 110.3125 42.613281 110.679688 42.578125 111.042969 42.546875 C 111.734375 42.480469 112.429688 42.425781 113.101562 42.316406 C 113.292969 42.300781 113.582031 42.957031 113.394531 43.082031 Z M 129.503906 48.035156 C 129.015625 48.816406 128.402344 49.574219 127.527344 50.101562 C 127.09375 50.363281 126.589844 50.550781 126.054688 50.613281 C 125.519531 50.675781 124.964844 50.601562 124.464844 50.425781 C 123.453125 50.066406 122.667969 49.355469 122.070312 48.570312 C 121.476562 47.777344 121.050781 46.875 120.796875 45.921875 C 120.546875 44.972656 120.460938 43.957031 120.636719 42.945312 C 120.808594 41.941406 121.289062 40.933594 122.058594 40.21875 C 122.828125 39.496094 123.804688 39.113281 124.746094 38.960938 C 125.691406 38.816406 126.625 38.863281 127.519531 39.019531 C 128.027344 39.125 127.921875 39.832031 127.445312 39.835938 C 126.597656 39.820312 125.757812 39.902344 124.988281 40.113281 C 124.222656 40.332031 123.535156 40.703125 123.054688 41.238281 C 122.566406 41.769531 122.28125 42.453125 122.179688 43.199219 C 122.078125 43.945312 122.152344 44.738281 122.355469 45.5 C 122.558594 46.257812 122.890625 46.996094 123.332031 47.632812 C 123.773438 48.261719 124.332031 48.804688 124.96875 49.085938 C 125.285156 49.222656 125.617188 49.296875 125.957031 49.296875 C 126.296875 49.289062 126.644531 49.207031 126.984375 49.054688 C 127.667969 48.75 128.292969 48.183594 128.839844 47.542969 C 129.207031 47.117188 129.808594 47.484375 129.503906 48.035156 Z M 137.53125 42.839844 C 136.402344 42.980469 135.253906 43.175781 134.042969 43.375 C 133.832031 43.390625 133.5625 42.738281 133.738281 42.601562 C 134.800781 41.886719 136.027344 41.378906 137.335938 41.21875 C 138.640625 41.054688 140 41.265625 141.175781 41.820312 C 141.34375 41.914062 141.167969 42.605469 140.996094 42.621094 C 139.785156 42.617188 138.660156 42.703125 137.53125 42.839844 Z M 141.253906 45.660156 C 140.703125 46.027344 140.082031 46.234375 139.488281 46.367188 C 138.886719 46.5 138.296875 46.558594 137.726562 46.59375 C 136.578125 46.664062 135.515625 46.605469 134.429688 46.761719 C 134.242188 46.765625 133.945312 46.125 134.121094 45.988281 C 134.648438 45.625 135.25 45.382812 135.847656 45.226562 C 136.449219 45.070312 137.050781 44.996094 137.632812 44.960938 C 138.21875 44.929688 138.785156 44.9375 139.335938 44.945312 C 139.886719 44.953125 140.421875 44.96875 140.945312 44.898438 C 141.097656 44.898438 141.40625 45.542969 141.253906 45.660156 Z M 157.382812 44.304688 C 157.363281 45.140625 157.222656 46.011719 156.832031 46.835938 C 156.714844 47.035156 156.621094 47.242188 156.480469 47.429688 C 156.339844 47.609375 156.199219 47.816406 156.054688 47.957031 L 155.835938 48.183594 L 155.601562 48.402344 C 155.453125 48.546875 155.277344 48.675781 155.109375 48.808594 C 154.421875 49.316406 153.617188 49.699219 152.765625 49.859375 C 152.339844 49.945312 151.90625 49.984375 151.472656 49.96875 C 151.042969 49.953125 150.617188 49.894531 150.203125 49.789062 C 148.554688 49.367188 147.105469 48.304688 146.226562 46.835938 C 145.792969 46.101562 145.503906 45.253906 145.457031 44.394531 C 145.402344 43.546875 145.515625 42.726562 145.714844 41.949219 C 145.921875 41.167969 146.222656 40.421875 146.613281 39.726562 C 147.007812 39.035156 147.492188 38.386719 148.089844 37.847656 C 148.292969 37.664062 148.492188 37.582031 148.640625 37.558594 C 148.789062 37.539062 148.894531 37.578125 148.949219 37.65625 C 149.003906 37.734375 149.011719 37.851562 148.964844 37.984375 C 148.917969 38.121094 148.8125 38.265625 148.660156 38.445312 C 147.71875 39.472656 147.125 40.839844 146.855469 42.21875 C 146.722656 42.90625 146.679688 43.609375 146.757812 44.269531 C 146.828125 44.917969 147.074219 45.523438 147.429688 46.070312 C 148.140625 47.164062 149.316406 47.964844 150.566406 48.246094 C 150.878906 48.320312 151.195312 48.355469 151.511719 48.359375 C 151.828125 48.371094 152.140625 48.335938 152.445312 48.269531 C 153.0625 48.148438 153.636719 47.871094 154.15625 47.492188 C 154.28125 47.386719 154.414062 47.296875 154.53125 47.179688 L 154.710938 47.015625 L 154.882812 46.835938 C 155.007812 46.714844 155.074219 46.605469 155.167969 46.492188 C 155.257812 46.378906 155.316406 46.238281 155.394531 46.117188 C 155.664062 45.578125 155.789062 44.929688 155.820312 44.257812 C 155.867188 42.90625 155.554688 41.480469 155.023438 40.171875 C 154.484375 38.867188 153.730469 37.609375 152.699219 36.730469 C 152.1875 36.304688 151.601562 35.96875 150.992188 35.917969 C 150.382812 35.855469 149.753906 36.050781 149.210938 36.457031 C 148.625 36.925781 148.042969 36.492188 148.703125 35.816406 C 148.867188 35.691406 149.023438 35.550781 149.199219 35.4375 L 149.476562 35.28125 C 149.570312 35.230469 149.664062 35.179688 149.769531 35.144531 C 149.972656 35.070312 150.175781 34.992188 150.394531 34.964844 C 150.5 34.945312 150.609375 34.917969 150.71875 34.914062 L 151.046875 34.910156 C 151.160156 34.902344 151.269531 34.914062 151.375 34.933594 L 151.699219 34.984375 C 151.90625 35.042969 152.121094 35.09375 152.316406 35.179688 C 152.507812 35.265625 152.710938 35.34375 152.882812 35.457031 L 153.15625 35.617188 C 153.242188 35.675781 153.324219 35.738281 153.40625 35.796875 C 154.074219 36.289062 154.628906 36.890625 155.105469 37.53125 C 155.582031 38.179688 155.980469 38.875 156.316406 39.597656 C 156.976562 41.046875 157.402344 42.628906 157.382812 44.304688 Z M 157.382812 44.304688 " fill-opacity="1" fill-rule="nonzero"/></g></svg>